<svg width="1600" height="900" viewBox="0 0 1600 900" fill="none" xmlns="http://www.w3.org/2000/svg">
  <defs>
    <linearGradient id="bg" x1="0" y1="0" x2="1600" y2="900" gradientUnits="userSpaceOnUse">
      <stop offset="0" stop-color="#070B1D"/>
      <stop offset="0.55" stop-color="#111735"/>
      <stop offset="1" stop-color="#1A0F2E"/>
    </linearGradient>

    <radialGradient id="glowA" cx="0" cy="0" r="1" gradientUnits="userSpaceOnUse" gradientTransform="translate(500 420) rotate(90) scale(360 420)">
      <stop offset="0" stop-color="#65F5FF" stop-opacity="0.18"/>
      <stop offset="1" stop-color="#65F5FF" stop-opacity="0"/>
    </radialGradient>

    <radialGradient id="glowB" cx="0" cy="0" r="1" gradientUnits="userSpaceOnUse" gradientTransform="translate(1120 430) rotate(90) scale(380 440)">
      <stop offset="0" stop-color="#FF7BDC" stop-opacity="0.16"/>
      <stop offset="1" stop-color="#FF7BDC" stop-opacity="0"/>
    </radialGradient>

    <linearGradient id="mainStroke" x1="540" y1="260" x2="1060" y2="640" gradientUnits="userSpaceOnUse">
      <stop offset="0" stop-color="#65F5FF"/>
      <stop offset="0.35" stop-color="#8D8BFF"/>
      <stop offset="0.7" stop-color="#FF7BDC"/>
      <stop offset="1" stop-color="#FFE36E"/>
    </linearGradient>

    <linearGradient id="slashStroke" x1="735" y1="315" x2="875" y2="585" gradientUnits="userSpaceOnUse">
      <stop offset="0" stop-color="#FFE36E"/>
      <stop offset="1" stop-color="#FF7BDC"/>
    </linearGradient>

    <filter id="softGlow" x="-40%" y="-40%" width="180%" height="180%">
      <feGaussianBlur stdDeviation="12" result="blur"/>
      <feColorMatrix in="blur" type="matrix" values="1 0 0 0 0  0 1 0 0 0  0 0 1 0 0  0 0 0 0.75 0" result="glow"/>
      <feMerge>
        <feMergeNode in="glow"/>
        <feMergeNode in="SourceGraphic"/>
      </feMerge>
    </filter>

    <filter id="shadow" x="-20%" y="-20%" width="140%" height="140%">
      <feDropShadow dx="0" dy="30" stdDeviation="32" flood-color="#000000" flood-opacity="0.34"/>
    </filter>

    <pattern id="grid" width="96" height="96" patternUnits="userSpaceOnUse">
      <path d="M 96 0 L 0 0 0 96" stroke="#8FA2FF" stroke-opacity="0.05" stroke-width="1"/>
    </pattern>
  </defs>

  <rect width="1600" height="900" fill="url(#bg)"/>
  <rect width="1600" height="900" fill="url(#grid)"/>
  <rect width="1600" height="900" fill="url(#glowA)"/>
  <rect width="1600" height="900" fill="url(#glowB)"/>

  <g opacity="0.2">
    <path d="M260 660C410 520 555 280 792 332C962 369 1065 535 1300 316" stroke="url(#mainStroke)" stroke-width="4"/>
  </g>

  <g filter="url(#shadow)">
    <rect x="420" y="170" width="760" height="560" rx="48" fill="#0B1026" fill-opacity="0.72" stroke="url(#mainStroke)" stroke-opacity="0.85" stroke-width="4"/>
  </g>

  <g filter="url(#softGlow)">
    <path d="M662 332L558 450L662 568" stroke="url(#mainStroke)" stroke-width="26" stroke-linecap="round" stroke-linejoin="round"/>
    <path d="M938 332L1042 450L938 568" stroke="url(#mainStroke)" stroke-width="26" stroke-linecap="round" stroke-linejoin="round"/>
    <path d="M856 308L744 592" stroke="url(#slashStroke)" stroke-width="22" stroke-linecap="round"/>
  </g>

  <g opacity="0.75">
    <path d="M620 650H980" stroke="#65F5FF" stroke-opacity="0.24" stroke-width="10" stroke-linecap="round"/>
    <path d="M705 650H895" stroke="#FF7BDC" stroke-opacity="0.34" stroke-width="10" stroke-linecap="round"/>
  </g>

  <g opacity="0.78" filter="url(#softGlow)">
    <circle cx="510" cy="230" r="8" fill="#65F5FF"/>
    <circle cx="1090" cy="230" r="8" fill="#FF7BDC"/>
    <circle cx="510" cy="670" r="8" fill="#FFE36E"/>
    <circle cx="1090" cy="670" r="8" fill="#8D8BFF"/>
  </g>

  <g opacity="0.45">
    <circle cx="218" cy="170" r="3" fill="#65F5FF"/>
    <circle cx="302" cy="128" r="2" fill="#FF7BDC"/>
    <circle cx="1368" cy="184" r="3" fill="#FFE36E"/>
    <circle cx="1432" cy="246" r="2.5" fill="#65F5FF"/>
    <circle cx="190" cy="772" r="2.5" fill="#FF7BDC"/>
    <circle cx="1458" cy="760" r="3" fill="#8D8BFF"/>
    <circle cx="804" cy="104" r="2.5" fill="#65F5FF"/>
    <circle cx="872" cy="804" r="2" fill="#FFE36E"/>
  </g>
</svg>
